<?xml version="1.0" encoding="iso-8859-1"?>
<!-- Uploaded to: SVG Repo, www.svgrepo.com, Generator: SVG Repo Mixer Tools -->
<!DOCTYPE svg PUBLIC "-//W3C//DTD SVG 1.1//EN" "http://www.w3.org/Graphics/SVG/1.1/DTD/svg11.dtd">
<svg fill="#000000" height="800px" width="800px" version="1.1" id="Capa_1" xmlns="http://www.w3.org/2000/svg" xmlns:xlink="http://www.w3.org/1999/xlink" 
	 viewBox="0 0 448.044 448.044" xml:space="preserve">
<path d="M429.346,278.013H267.222V89.89h129.065v57h-3.792c-1.751,0-3.658,1.102-4.534,2.618l-11.292,19.558
	c-0.877,1.518-0.877,3.72,0,5.236l11.292,19.559c0.875,1.517,2.782,2.617,4.534,2.617h2.418c2.133,0,3.868-1.735,3.868-3.868v-4.9
	c0-2.133-1.735-3.868-3.868-3.868h-3.138v-19.073h24.023v19.073h-3.138c-2.133,0-3.868,1.735-3.868,3.868v4.9
	c0,2.133,1.735,3.868,3.868,3.868h2.418c1.752,0,3.659-1.101,4.534-2.617l11.292-19.559c0.876-1.517,0.876-3.719,0-5.235
	l-11.292-19.559c-0.876-1.517-2.783-2.618-4.534-2.618h-3.792v-59.5c0-6.893-5.608-12.5-12.5-12.5H254.722H209.45
	c-0.259,0-0.516,0.013-0.768,0.039c-6.534,0.4-11.732,5.828-11.732,12.461v190.623h-21.088c-3.837,0-5.125-1-5.428-1.306
	c-0.273-0.276-0.365-0.583-0.395-0.775l0.002-132.66l-0.156-0.609c-1.761-6.883-7.938-11.69-15.023-11.69h-8.089
	c-5.742,0-10.441-0.058-10.515-0.059H86.682c-13.821,0-20.301,6.944-25.738,17.388c-1.233,2.047-15.771,26.216-30.129,51.297
	C0,253.429,0,258.852,0,261.458v38.075c0,13.808,11.234,25.04,25.042,25.04h21.737c-0.033,0.712-0.055,1.427-0.055,2.146
	c0,25.604,20.828,46.434,46.429,46.434c25.602,0,46.43-20.83,46.43-46.434c0-0.72-0.022-1.435-0.055-2.146h102.476
	c-0.033,0.712-0.055,1.427-0.055,2.146c0,25.604,20.829,46.434,46.432,46.434c25.601,0,46.429-20.83,46.429-46.434
	c0-0.72-0.022-1.435-0.055-2.146h1.412c-0.033,0.712-0.055,1.427-0.055,2.146c0,25.604,20.829,46.434,46.432,46.434
	c25.601,0,46.429-20.83,46.429-46.434c0-0.72-0.022-1.435-0.055-2.146h0.425c10.485,0,18.698-6.349,18.698-14.452v-17.657
	C448.044,284.361,439.831,278.013,429.346,278.013z M93.154,349.083c-12.349,0-22.362-10.013-22.362-22.362
	c0-12.349,10.012-22.36,22.362-22.36c12.349,0,22.362,10.011,22.362,22.36C115.515,339.071,105.503,349.083,93.154,349.083z
	 M142.963,207.186c0,6.083-4.949,11.032-11.033,11.032H56.664c-2.348,0-4.109-0.613-4.712-1.641
	c-0.595-1.014-0.286-2.817,0.825-4.835c1.373-2.25,19.915-32.674,25.394-43.867c5.92-12.096,12.662-13.03,21.54-13.03h36.549
	c4.037,0,6.704,0,6.704,19.489V207.186z M211.95,161.89h40.271v24H211.95V161.89z M252.222,89.89v57H211.95v-57H252.222z
	 M211.95,200.89h40.271v77.123H211.95V200.89z M288.382,349.083c-12.349,0-22.36-10.013-22.36-22.362
	c0-12.349,10.011-22.36,22.36-22.36c12.349,0,22.36,10.011,22.36,22.36C310.743,339.071,300.732,349.083,288.382,349.083z
	 M382.546,349.083c-12.349,0-22.36-10.013-22.36-22.362c0-12.349,10.011-22.36,22.36-22.36s22.36,10.011,22.36,22.36
	C404.906,339.071,394.895,349.083,382.546,349.083z"/>
</svg>