<?xml version="1.0" encoding="iso-8859-1"?>
<!-- Uploaded to: SVG Repo, www.svgrepo.com, Generator: SVG Repo Mixer Tools -->
<svg fill="#000000" version="1.1" id="Layer_1" xmlns="http://www.w3.org/2000/svg" xmlns:xlink="http://www.w3.org/1999/xlink" 
	 viewBox="0 0 511.999 511.999" xml:space="preserve">
<g>
	<g>
		<path d="M404.27,69.014v42.776h-20.592v30.417h20.592v2.713c0,15.596,6.669,29.659,17.298,39.504l-34.005,28.542v-20.024H284.389
			V26.046H0v459.907h284.389V351.882h103.173v-99.203l22.137-18.58v66.555c0,21.396,13.95,39.582,33.227,45.977v108.905h-18.018
			v30.417h48.435V346.63c19.277-6.394,33.227-24.581,33.227-45.977v-83.85c0-12.294-4.612-23.526-12.187-32.076
			c10.816-9.858,17.617-24.053,17.617-39.807v-2.713V111.79V69.014H404.27z M253.972,192.944h-25.348v158.938h25.348v103.654H30.417
			V56.463h223.554V192.944z M357.145,238.498l-43.461,36.479l19.555,23.299l23.906-20.065v43.254h-72.756h-25.348v-98.104h25.348
			h8.496v32.059h30.417v-32.059h33.843V238.498z M476.153,300.655c0,9.935-8.084,18.018-18.018,18.018s-18.018-8.083-18.018-18.018
			v-83.85c0-9.935,8.084-18.018,18.018-18.018s18.018,8.083,18.018,18.018V300.655z M481.583,144.921
			c0,12.928-10.518,23.448-23.448,23.448s-23.448-10.519-23.448-23.448v-2.713h46.895V144.921z M481.583,111.79h-46.895V99.431
			h46.895V111.79z"/>
	</g>
</g>
<g>
	<g>
		<rect x="50.695" y="239.971" width="30.417" height="64.89"/>
	</g>
</g>
</svg>